<svg width="245" height="310" viewBox="0 0 245 310" fill="none" xmlns="http://www.w3.org/2000/svg">
<path fill-rule="evenodd" clip-rule="evenodd" d="M103.405 61.1544C99.4149 58.6978 96.1106 55.1732 94.9276 50.4075C91.5188 36.6759 111.166 33.5731 116.997 39.1714C122.829 44.7698 127.967 62.0987 123.661 64.8324C121.943 65.9227 117.568 66.033 112.712 64.9008L121.108 82.1152L106.051 86.9945L103.405 61.1544Z" fill="#B28B67"/>
<path fill-rule="evenodd" clip-rule="evenodd" d="M110.274 42.6318C108.601 44.4369 107.841 47.0498 107.001 50.4264C106.52 50.3969 106.026 50.4554 105.54 50.6128C103.461 51.2865 102.322 53.5179 102.996 55.5969C103.338 56.6523 104.081 57.4655 105.003 57.9223C104.53 59.434 103.97 61.0346 103.281 62.7223C98.2952 61.5706 92.8253 55.2776 94.5275 46.9399C93.383 31.7146 115.653 34.1785 118.62 30.5867C121.097 35.4436 119.799 40.4275 110.274 42.6318Z" fill="#191847"/>
<path fill-rule="evenodd" clip-rule="evenodd" d="M111.637 142.365L145.916 228.936L168.906 302.125H177.985L142.837 142.365L111.637 142.365Z" fill="#997659"/>
<path fill-rule="evenodd" clip-rule="evenodd" d="M104.735 142.365C104.37 172.787 99.0467 213.745 98.1962 215.641C97.6292 216.905 78.056 232.982 39.4764 263.871L45.7293 270.548C91.2496 244.064 115.063 229.056 117.169 225.524C120.329 220.226 130.616 171.469 138.875 142.365H104.735Z" fill="#B28B67"/>
<path fill-rule="evenodd" clip-rule="evenodd" d="M38.6003 261.63C36.5 262.374 35.0531 263.079 34.2597 263.746C33.2948 264.557 32.0215 265.901 30.4399 267.779C31.379 268.901 39.8182 278.975 55.7576 298.004C59.0084 296.61 60.0284 294.98 58.8176 293.114C57.6069 291.248 56.616 289.685 55.8451 288.426L50.3314 269.121C50.2253 268.75 49.8387 268.535 49.4678 268.641C49.4615 268.643 49.4551 268.645 49.4489 268.647L46.5051 269.583C44.463 268.63 43.0318 267.663 42.2114 266.684C41.5448 265.888 40.9452 264.52 40.4125 262.578L40.4125 262.578C40.2081 261.833 39.4394 261.395 38.6954 261.6C38.6634 261.609 38.6316 261.619 38.6003 261.63Z" fill="#E4E4E4"/>
<path fill-rule="evenodd" clip-rule="evenodd" d="M165.189 298.815C164.408 300.904 164.017 302.467 164.017 303.505C164.017 304.766 164.227 306.607 164.646 309.027C166.107 309.027 179.238 309.027 204.037 309.027C205.061 305.638 204.47 303.808 202.264 303.537C200.059 303.267 198.227 303.023 196.768 302.805L178.46 294.629C178.107 294.472 177.695 294.63 177.538 294.983C177.535 294.989 177.532 294.995 177.53 295.002L176.353 297.861C174.311 298.815 172.652 299.293 171.376 299.293C170.339 299.293 168.906 298.873 167.079 298.034L167.079 298.034C166.378 297.712 165.549 298.02 165.227 298.723C165.213 298.753 165.201 298.784 165.189 298.815Z" fill="#E4E4E4"/>
<path fill-rule="evenodd" clip-rule="evenodd" d="M162.5 289.912H177.848L145.859 142.365L112 154.5L162.5 289.912Z" fill="#69A1AC"/>
<path fill-rule="evenodd" clip-rule="evenodd" d="M48.4048 253.1L65 268.5C94.8214 236 116.049 231.412 121 221.5C125.951 211.588 138.276 186.157 142.226 142.365H98.7019C96.5442 180.891 95.0898 201.051 94.3386 202.844C93.5874 204.636 78.2761 221.388 48.4048 253.1Z" fill="#89C5CC"/>
<path fill-rule="evenodd" clip-rule="evenodd" d="M165.111 126.32L189.875 138.492C196.107 139.039 201.429 140.15 205.841 141.825C206.934 142.515 208.379 144.047 204.415 144.439C200.451 144.831 196.298 145.421 195.992 146.845C195.686 148.27 198.333 149.441 197.557 151.427C197.04 152.751 193.077 150.361 185.667 144.256L162.361 139.122L165.111 126.32ZM80.964 141.769L95.3484 139.284C91.492 169.396 89.3637 185.388 88.9634 187.259C88.0627 191.47 92.4833 196.859 94.4892 199.821C90.1657 202.741 89.3037 194.908 83.8681 198.697C78.9068 202.156 75.5955 207.418 68.6802 204.686C67.83 204.35 66.677 202.723 68.4644 200.976C72.9176 196.624 79.1469 189.284 79.7822 187.118C80.6484 184.165 81.0424 169.048 80.964 141.769Z" fill="#B28B67"/>
<path fill-rule="evenodd" clip-rule="evenodd" d="M111.225 74.4335L116.995 72.3651C142.409 87.4581 157.892 122.348 188.347 136.896L183.249 146.089C135.294 148.599 115.833 106.143 111.225 74.4335Z" fill="#AD9E00"/>
<path fill-rule="evenodd" clip-rule="evenodd" d="M98.3953 153.493C122.25 149.275 139.796 146.173 151.036 144.185C153.441 143.76 152.379 140.38 151.725 138.695C144.168 119.253 124.683 100.299 119.639 71.6133L104.038 71.926C95.0173 94.2701 95.0306 119.814 98.3953 153.493Z" fill="#DDE3E9"/>
<path fill-rule="evenodd" clip-rule="evenodd" d="M88.5656 95.0551C86.2491 94.8135 84.2437 93.6493 82.5492 91.5625C75.2448 82.567 76.2833 76.7195 81.8971 73.8652C87.5108 71.0108 93.4542 73.7948 102.904 72.1238C103.418 72.033 103.895 71.9818 104.334 71.9704L109.135 71.4002C130.871 115.038 140.034 145.096 136.626 161.575L95.192 168.902C93.7398 175.039 92.2344 180.252 90.6756 184.542L79.3855 186.539C72.3045 152.5 75.3646 122.005 88.5656 95.0551Z" fill="#DBC800"/>
<path fill-rule="evenodd" clip-rule="evenodd" d="M100.064 143.659C103.277 154.291 106.781 161.799 110.576 166.185L95.2002 168.904C96.894 161.746 98.5153 153.331 100.064 143.659V143.659Z" fill="black" fill-opacity="0.1"/>
</svg>
